<?xml version="1.0" standalone="no"?>
<svg xmlns:xlink="http://www.w3.org/1999/xlink" id="wave" style="transform:rotate(0deg); transition: 0.3s" viewBox="0 0 1440 490" version="1.1" xmlns="http://www.w3.org/2000/svg"><defs><linearGradient id="sw-gradient-0" x1="0" x2="0" y1="1" y2="0"><stop stop-color="rgba(243, 106, 62, 1)" offset="0%"/><stop stop-color="rgba(221, 137, 65, 1)" offset="100%"/></linearGradient></defs><path style="transform:translate(0, 0px); opacity:1" fill="url(#sw-gradient-0)" d="M0,147L26.7,155.2C53.3,163,107,180,160,179.7C213.3,180,267,163,320,163.3C373.3,163,427,180,480,196C533.3,212,587,229,640,196C693.3,163,747,82,800,57.2C853.3,33,907,65,960,106.2C1013.3,147,1067,196,1120,196C1173.3,196,1227,147,1280,138.8C1333.3,131,1387,163,1440,187.8C1493.3,212,1547,229,1600,204.2C1653.3,180,1707,114,1760,147C1813.3,180,1867,310,1920,375.7C1973.3,441,2027,441,2080,367.5C2133.3,294,2187,147,2240,98C2293.3,49,2347,98,2400,138.8C2453.3,180,2507,212,2560,204.2C2613.3,196,2667,147,2720,171.5C2773.3,196,2827,294,2880,285.8C2933.3,278,2987,163,3040,171.5C3093.3,180,3147,310,3200,326.7C3253.3,343,3307,245,3360,245C3413.3,245,3467,343,3520,359.3C3573.3,376,3627,310,3680,285.8C3733.3,261,3787,278,3813,285.8L3840,294L3840,490L3813.3,490C3786.7,490,3733,490,3680,490C3626.7,490,3573,490,3520,490C3466.7,490,3413,490,3360,490C3306.7,490,3253,490,3200,490C3146.7,490,3093,490,3040,490C2986.7,490,2933,490,2880,490C2826.7,490,2773,490,2720,490C2666.7,490,2613,490,2560,490C2506.7,490,2453,490,2400,490C2346.7,490,2293,490,2240,490C2186.7,490,2133,490,2080,490C2026.7,490,1973,490,1920,490C1866.7,490,1813,490,1760,490C1706.7,490,1653,490,1600,490C1546.7,490,1493,490,1440,490C1386.7,490,1333,490,1280,490C1226.7,490,1173,490,1120,490C1066.7,490,1013,490,960,490C906.7,490,853,490,800,490C746.7,490,693,490,640,490C586.7,490,533,490,480,490C426.7,490,373,490,320,490C266.7,490,213,490,160,490C106.7,490,53,490,27,490L0,490Z"/></svg>